<svg id="Layer_1" data-name="Layer 1" xmlns="http://www.w3.org/2000/svg" viewBox="0 0 198.84 63.08"><defs><style>.cls-1{font-size:34.45px;font-family:Roboto;}.cls-1,.cls-2,.cls-3{fill:#fff;}.cls-3{stroke:#000;stroke-miterlimit:10;}</style></defs><title>LiveSafe-logo</title><text class="cls-1" transform="translate(70.61 49.68)">Li<tspan x="25.97" y="0">v</tspan><tspan x="42.6" y="0">eSa</tspan><tspan x="99.57" y="0">f</tspan><tspan x="110.49" y="0">e</tspan></text><path class="cls-2" d="M48.51,47a1.5,1.5,0,0,1-1.79.67L13.26,36V37.9l36,17.28V45.72Z" transform="translate(-9.66 -12.7)"/><path class="cls-2" d="M78.77,37H78.65l-3-.69a0.5,0.5,0,0,1-.39-0.49V33a0.5,0.5,0,0,1,.88-0.32l3,3.55A0.5,0.5,0,0,1,78.77,37Z" transform="translate(-9.66 -12.7)"/><path class="cls-2" d="M62.59,69.2a0.5,0.5,0,0,1-.5-0.5V54.51a0.5,0.5,0,0,1,.27-0.44l4.54-2.33a0.5,0.5,0,0,1,.73.45l-0.1,13.94a0.5,0.5,0,0,1-.25.43l-4.44,2.57A0.5,0.5,0,0,1,62.59,69.2Z" transform="translate(-9.66 -12.7)"/><path class="cls-3" d="M63.35,18.23" transform="translate(-9.66 -12.7)"/><path class="cls-2" d="M75.81,62" transform="translate(-9.66 -12.7)"/><path class="cls-3" d="M75.81,62" transform="translate(-9.66 -12.7)"/><path class="cls-2" d="M49.38,75.77A3.56,3.56,0,0,1,48,75.5L14.81,60.73a3,3,0,0,1-1.65-2.54l0-22.25,1,0.39,0,21.85a2,2,0,0,0,1,1.59L48.38,74.56a3,3,0,0,0,2.19-.07L74.26,62.18a2.15,2.15,0,0,0,1-1.68l0-27.5h1l0,27.5a3.17,3.17,0,0,1-1.58,2.6L51.05,75.41A3.73,3.73,0,0,1,49.38,75.77Z" transform="translate(-9.66 -12.7)"/><path class="cls-2" d="M62.64,19.46a0.89,0.89,0,0,0-.7-1.42L22.56,12.71a2.31,2.31,0,0,0-2.12,1l-10.6,18a1.12,1.12,0,0,0,.62,1.69L45.87,45.81a1.78,1.78,0,0,0,2-.76Z" transform="translate(-9.66 -12.7)"/></svg>